<?xml version="1.0" encoding="UTF-8"?>
<svg xmlns="http://www.w3.org/2000/svg" version="1.1" viewBox="0 0 1850 410.7">
  <defs>
    <style>
      .cls-1 {
        fill: #0f4d92;
      }

      .cls-2 {
        fill: #0f4d92;
      }
    </style>
  </defs>
  <!-- Generator: Adobe Illustrator 28.7.3, SVG Export Plug-In . SVG Version: 1.2.0 Build 164)  -->
  <g>
    <g id="Layer_1">
      <g>
        <g>
          <path class="cls-2" d="M187.2,212.8c-3.9,0-7,3.1-7,7s3.1,7,7,7,7-3.1,7-7h0c0-3.9-3.1-7-7-7ZM187.1,224.4c-2.5,0-4.6-2.1-4.6-4.6s2.1-4.6,4.6-4.6h0c2.5,0,4.5,2.1,4.5,4.6s-2.1,4.6-4.6,4.6h.1Z"/>
          <path class="cls-2" d="M190.5,209.2h0c6.7,0,12.1-5.4,12.1-12.1s-5.4-12.1-12.1-12.1-12.1,5.4-12.1,12.1h0c0,6.7,5.4,12.1,12.1,12.1ZM180.8,197c0-5.4,4.4-9.7,9.8-9.7s9.7,4.4,9.7,9.8-4.4,9.7-9.8,9.7-9.7-4.4-9.7-9.7h0Z"/>
          <path class="cls-2" d="M174.3,223c-2,0-3.6,1.6-3.6,3.6s1.6,3.6,3.6,3.6h0c2,0,3.6-1.6,3.6-3.6s-1.6-3.6-3.6-3.6ZM174.2,227.9c-.7,0-1.2-.6-1.2-1.2s.6-1.2,1.2-1.2h0c.7,0,1.2.6,1.2,1.2s-.6,1.2-1.2,1.2Z"/>
          <path class="cls-2" d="M170.1,204.2c-4.7,0-8.6,3.8-8.6,8.6s3.8,8.6,8.6,8.6h0c4.7,0,8.5-3.8,8.6-8.6h0c0-4.7-3.8-8.6-8.6-8.6ZM170.1,219c-3.4,0-6.2-2.8-6.2-6.2s2.8-6.2,6.2-6.2,6.2,2.8,6.2,6.2-2.8,6.2-6.2,6.2Z"/>
          <path class="cls-2" d="M170.1,196.6c3.9,0,7-3.1,7-7s-3.1-7-7-7h0c-3.9,0-7,3.1-7,7s3.1,7,7,7ZM170.1,184.9c2.5,0,4.6,2.1,4.6,4.6s-2.1,4.6-4.6,4.6h0c-2.5,0-4.6-2.1-4.6-4.6s2.1-4.6,4.6-4.6Z"/>
          <path class="cls-2" d="M162.9,200.8h0c0-2.2-1.9-4-4.1-4s-4,1.9-4,4.1,1.8,4,4,4,4-1.8,4.1-4h0ZM158.9,202.4c-.9,0-1.7-.7-1.7-1.7s.7-1.7,1.7-1.7,1.7.7,1.7,1.7-.7,1.7-1.7,1.7Z"/>
          <path class="cls-2" d="M182.3,184.9c2,0,3.6-1.6,3.6-3.6s-1.6-3.6-3.6-3.6h0c-2,0-3.6,1.6-3.6,3.6s1.6,3.6,3.6,3.6ZM181,181.3c0-.7.6-1.2,1.3-1.2s1.2.6,1.2,1.3-.6,1.2-1.3,1.2h0c-.7,0-1.2-.6-1.2-1.3h0Z"/>
          <path class="cls-2" d="M178.9,61.1c-79.6,0-144.2,64.6-144.2,144.2s64.6,144.2,144.2,144.2,144.2-64.6,144.2-144.2S258.5,61.1,178.9,61.1ZM275,210.6c-2.5,49-41.9,88.3-90.9,90.9v30.1h-10v-30.1c-49-2.5-88.3-41.9-90.9-90.9h-30.1v-10h30.1c2.5-49,41.9-88.3,90.9-90.9v-30.1h10v30.1c49,2.5,88.3,41.9,90.9,90.9h30.1v10h-30.1Z"/>
          <path class="cls-2" d="M237.6,200.6h25.3c-2.5-42.3-36.5-76.3-78.8-78.8v25.3h-10v-25.3c-42.3,2.5-76.3,36.5-78.8,78.8h25.3v10h-25.3c2.5,42.3,36.5,76.3,78.8,78.8v-25.3h10v25.3c42.3-2.5,76.3-36.5,78.8-78.8h-25.3v-10h0ZM225.7,210.3c-.2,1.7-.9,3.3-1.9,4.6-.7,1.3-2.4,1.8-3.7,1.1-.7-.4-1.2-1.1-1.4-1.9-.7-1.7-2.3-2.8-4.2-2.8h-6.9c-.9.1-1.7.7-2,1.5-.3.7-.5,1.5-.9,2.2-.4.9-.2,1.9.6,2.5l3.6,3c1,.8,2.4,1,3.5.5.5-.3,1-.3,1.5-.1.4.3.6.9.6,1.4,0,2-1.2,3.9-3,4.9-.5.3-1,.3-1.5.1-.5-.4-.7-1-.6-1.6,0-1.3-.8-2.6-2-3.1l-4.2-1.8c-.9-.4-1.9-.1-2.5.6l-.5.6c-.6.7-.7,1.7-.3,2.5l3.4,6.2c.9,1.5,2.6,2.4,4.3,2.3,1.1-.2,2.1.2,2.9,1,1.2,1.6-.1,4.9-3,7-2.9,2.2-6.3,2.6-7.6,1-.6-1-.6-2.3,0-3.3.7-1.7.3-3.7-1-5l-4.9-4.7c-.6-.6-1.6-.8-2.4-.4-.8.4-1.7.8-2.5,1.1-.9.3-1.4,1.1-1.4,2.1l.3,4.6c0,1.3.9,2.4,2.1,2.9.5.1,1,.5,1.2,1,.2.9-1.2,2.3-3.2,2.7-2.1.4-3.9-.2-4.1-1.2,0-.6.2-1.2.7-1.5,1-.9,1.3-2.3.8-3.6l-1.7-4.2c-.3-.9-1.2-1.4-2.1-1.3h-.4c-.9,0-1.7.7-1.9,1.5l-2,6.7c-.5,1.7,0,3.5,1.4,4.7,1.3.7,1.8,2.4,1.1,3.7-.4.7-1,1.2-1.8,1.3-3.2,1.3-6.9.8-9.7-1.3-.9-.6-1.4-1.7-1.4-2.7.3-1.1,1.2-2,2.3-2.3,1.7-.7,2.8-2.4,2.8-4.2v-6.8c-.1-.9-.7-1.7-1.5-2-1-.3-2-.7-2.9-1.2-.3-.1-.6-.2-.9-.2-.6,0-1.2.3-1.6.7l-3.1,3.5c-.8.9-1.1,2.3-.6,3.5.3.5.3,1,0,1.5-.5.8-2.4.8-4.2-.4-.9-.6-1.6-1.3-2-2.3-.3-.5-.3-1,0-1.5.4-.4,1-.6,1.6-.5,1.3,0,2.6-.7,3.2-1.9l1.9-4.1c.5-1.1,0-2.4-1-2.8-.6-.3-1.4-.3-2,0l-6.2,3.4c-1.5.9-2.4,2.6-2.3,4.3.2,1.1-.2,2.1-1,2.9-1.6,1.2-4.9-.1-7-3s-2.6-6.3-1-7.6c1-.6,2.3-.6,3.3,0,1.7.7,3.7.3,5-1l4.7-4.9c.6-.6.8-1.6.4-2.4-.2-.4-.4-.9-.6-1.3-.4-.9-1.3-1.4-2.2-1.3l-4.6.5c-1.3.1-2.4,1.1-2.8,2.3-.1.5-.5,1-1,1.2-.9.3-2.3-1-2.9-3.1-.3-1-.3-2,0-3,.1-.5.5-.9,1-1.2.6,0,1.2.2,1.5.7,1,.9,2.4,1.2,3.6.6l4.2-1.8c.9-.4,1.4-1.3,1.2-2.2,0-.6-.1-1.2-.2-1.7,0-.9-.7-1.7-1.5-1.9l-6.7-2.1c-1.7-.5-3.5,0-4.7,1.4-.6.9-1.6,1.4-2.7,1.4-1.1-.3-1.9-1-2.3-2.1-1.3-3.2-.8-6.9,1.3-9.7.6-.9,1.7-1.4,2.7-1.4,1.1.3,2,1.2,2.3,2.3.7,1.7,2.4,2.8,4.2,2.8h6.8c.9-.1,1.7-.7,2-1.5.2-.6.4-1.2.7-1.7.4-.9.1-1.9-.6-2.5l-3.6-2.9c-1-.8-2.4-1-3.5-.4-.5.3-1,.4-1.5.2-.8-.5-.9-2.4.2-4.2.5-.9,1.3-1.6,2.2-2.1.4-.3,1-.3,1.5-.1.5.4.7,1,.6,1.6,0,1.3.8,2.5,2.1,3l4.2,1.7c.9.4,1.9,0,2.5-.7l.9-1c.6-.7.7-1.6.3-2.4l-3.4-6.2c-.9-1.5-2.6-2.4-4.3-2.3-1.1.2-2.1-.2-2.9-1-1.2-1.6.1-4.9,3-7,2.9-2.2,6.3-2.6,7.6-1,.6,1,.6,2.3,0,3.3-.7,1.7-.3,3.7,1,5l4.9,4.7c.6.6,1.6.8,2.4.4.6-.3,1.2-.5,1.7-.7.9-.3,1.4-1.2,1.4-2.1l-.5-4.6c-.1-1.3-1-2.4-2.2-2.8-.5-.1-.9-.5-1.2-1,0-.5.2-1.1.6-1.4.7-.7,1.6-1.2,2.6-1.4,2.1-.5,3.9,0,4.1,1,0,.6-.2,1.2-.7,1.5-.9.9-1.2,2.3-.7,3.5l1.8,4.2c.4.9,1.3,1.4,2.2,1.3h1.3c.9-.2,1.7-.8,1.9-1.6l2-6.7c.5-1.7,0-3.5-1.4-4.7-.9-.6-1.4-1.6-1.4-2.7.3-1.1,1-1.9,2.1-2.3,3.2-1.3,6.9-.8,9.7,1.3.9.6,1.4,1.7,1.4,2.7-.3,1.1-1.2,2-2.3,2.3-1.7.7-2.8,2.4-2.8,4.2v6.8c.1.9.7,1.7,1.5,2,.5.2.9.3,1.4.5.9.4,1.9.1,2.5-.6l2.9-3.6c.7-1,.8-2.3.3-3.4-.3-.5-.4-1-.2-1.5.5-.8,2.4-.9,4.2.2.9.5,1.6,1.2,2.1,2.1.3.4.4,1,.2,1.5-.4.5-1,.7-1.5.6-1.3,0-2.5.8-3,2.1l-1.7,4.2c-.3.9,0,1.9.7,2.5.4.3.9.7,1.3,1.1.7.6,1.6.7,2.4.3l6.2-3.4c1.5-.9,2.4-2.6,2.3-4.3-.2-1.1.2-2.1,1-2.9,1.6-1.2,4.9.1,7,3,2.2,2.9,2.6,6.3,1,7.6-1,.6-2.3.6-3.3,0-1.7-.7-3.7-.3-5,1l-4.7,4.9c-.6.6-.8,1.6-.4,2.4.3.6.5,1.2.8,1.7.4.9,1.2,1.4,2.2,1.3l4.6-.5c1.3,0,2.4-.9,2.8-2.1.1-.5.5-.9,1-1.2.9-.2,2.3,1.1,2.8,3.1s0,3.9-1,4.1c-.6,0-1.2-.2-1.5-.7-.9-1-2.4-1.2-3.6-.7l-4.2,1.8c-.9.4-1.4,1.3-1.3,2.2,0,.4,0,.8.1,1.2,0,.9.7,1.7,1.5,1.9l6.7,2c1.7.5,3.5,0,4.7-1.4.6-.9,1.6-1.4,2.7-1.4,1.1.3,1.9,1,2.3,2.1.6,1.6.8,3.3.5,5v-.3Z"/>
          <path class="cls-2" d="M199.9,209.2c-2,0-3.6,1.5-3.7,3.5,0,2,1.5,3.6,3.5,3.7h0c2,0,3.6-1.6,3.6-3.6h0c0-2-1.5-3.6-3.5-3.7h0ZM199.7,214h0c-.7,0-1.2-.6-1.2-1.2s.6-1.2,1.2-1.2,1.2.6,1.2,1.2-.6,1.2-1.2,1.2Z"/>
        </g>
        <g>
          <path class="cls-1" d="M392.9,331.6V77h91.3c19.6,0,35.9,3.6,49,10.9,13.1,7.3,22.9,17.1,29.4,29.6,6.5,12.4,9.7,26.5,9.7,42.2s-3.3,29.8-9.8,42.3c-6.6,12.5-16.4,22.3-29.5,29.6-13.1,7.2-29.5,10.9-49.2,10.9h-62.4v-33h58.6c12.5,0,22.7-2.2,30.4-6.5,7.7-4.3,13.4-10.3,17-17.8s5.4-16,5.4-25.5-1.8-18.1-5.4-25.5c-3.6-7.5-9.3-13.3-17.1-17.5-7.8-4.2-18-6.3-30.7-6.3h-47.9v221.3h-39Z"/>
          <path class="cls-1" d="M617.4,331.6V77h91.3c19.6,0,35.9,3.4,49,10.2,13.1,6.8,22.9,16.2,29.4,28.3,6.5,12.1,9.7,25.9,9.7,41.5s-3.3,29.5-9.8,41.3c-6.6,11.8-16.4,20.9-29.5,27.4-13.1,6.5-29.5,9.7-49.2,9.7h-68.5v-33.3h64.8c12.5,0,22.6-1.8,30.3-5.4s13.4-8.7,17-15.5c3.6-6.7,5.5-14.8,5.5-24.3s-1.8-17.8-5.5-24.8c-3.6-6.9-9.3-12.3-17.1-16.1-7.7-3.8-17.9-5.7-30.6-5.7h-47.9v221.3h-39ZM762.2,331.6l-61.7-115h43.2l62.7,115h-44.3Z"/>
          <path class="cls-1" d="M844.2,331.6V77h160.3v33.5h-121.3v75.9h112.6v33.3h-112.6v78.4h122.4v33.5h-161.3Z"/>
          <path class="cls-1" d="M1161.1,335c-22,0-41.6-5.2-59-15.6-17.3-10.4-30.9-25.4-40.8-44.9-9.9-19.5-14.9-42.9-14.9-70s5-50.6,14.9-70.2c9.9-19.5,23.5-34.5,40.8-45,17.3-10.5,37-15.7,59-15.7s26.1,1.9,37.9,5.8c11.8,3.9,22.3,9.5,31.6,16.9,9.3,7.4,17,16.4,23.1,27,6.1,10.6,10.2,22.6,12.4,36.1h-39.1c-1.6-8.1-4.4-15.2-8.5-21.4-4-6.2-9-11.5-14.8-15.8-5.8-4.3-12.3-7.6-19.5-9.7-7.2-2.2-14.8-3.2-22.7-3.2-14.6,0-27.7,3.7-39.2,11-11.6,7.3-20.7,18.1-27.3,32.3-6.6,14.2-9.9,31.5-9.9,52s3.4,37.9,10.1,52c6.7,14.2,15.8,24.9,27.3,32.1,11.5,7.2,24.5,10.9,39,10.9s15.5-1.1,22.6-3.3c7.1-2.2,13.6-5.5,19.5-9.7,5.9-4.3,10.8-9.5,14.9-15.8,4-6.3,6.9-13.4,8.5-21.4h39.3c-1.9,12.5-5.9,24-11.8,34.4-5.9,10.4-13.5,19.5-22.7,27.3-9.2,7.7-19.8,13.7-31.7,17.9-11.9,4.2-24.9,6.2-38.9,6.2Z"/>
          <path class="cls-1" d="M1350.9,77v254.6h-39V77h39Z"/>
          <path class="cls-1" d="M1492.8,335.9c-19,0-35.5-3-49.6-9.1s-25-14.7-32.9-25.9c-7.9-11.2-12.3-24.6-13.1-40.1h39.1c.8,9.2,3.8,16.9,9,22.9,5.2,6,11.9,10.5,20.3,13.5,8.3,3,17.3,4.4,27,4.4s20.4-1.7,28.8-5c8.4-3.4,15-8.1,19.9-14.4,4.9-6.2,7.3-13.4,7.3-21.6s-2.1-13.5-6.4-18.2c-4.3-4.7-10-8.7-17.3-11.8-7.2-3.1-15.5-5.9-24.7-8.3l-29.7-8.2c-20.8-5.6-37.1-13.8-48.8-24.8-11.7-10.9-17.5-25.1-17.5-42.6s4-27.5,11.9-38.5c7.9-11,18.7-19.5,32.3-25.6,13.6-6.1,29-9.1,46.1-9.1s32.8,3,46.1,9.1c13.3,6.1,23.7,14.4,31.3,25,7.6,10.6,11.5,22.7,11.9,36.2h-37.9c-1.3-11.6-6.6-20.6-16.1-27-9.5-6.4-21.5-9.6-36-9.6s-19.2,1.6-26.7,4.8c-7.6,3.2-13.4,7.6-17.6,13.2-4.2,5.6-6.2,12-6.2,19.2s2.5,14.6,7.4,19.6c5,5,11,8.9,18.1,11.8,7.1,2.9,13.9,5.2,20.4,6.9l24.8,6.5c8.1,2.1,16.4,4.8,25,8.3,8.6,3.5,16.5,8,23.8,13.5,7.3,5.5,13.2,12.4,17.7,20.5,4.5,8.1,6.8,18,6.8,29.5s-3.7,27.2-11.1,38.5c-7.4,11.3-18.1,20.1-32.2,26.6-14.1,6.4-31.1,9.7-51,9.7Z"/>
          <path class="cls-1" d="M1633.4,331.6V77h160.3v33.5h-121.3v75.9h112.6v33.3h-112.6v78.4h122.4v33.5h-161.3Z"/>
        </g>
      </g>
    </g>
  </g>
</svg>