<?xml version="1.0" encoding="UTF-8"?>
<svg id="Layer_1" xmlns="http://www.w3.org/2000/svg" version="1.1" viewBox="0 0 400 400">
  <!-- Generator: Adobe Illustrator 29.1.0, SVG Export Plug-In . SVG Version: 2.1.0 Build 142)  -->
  <defs>
    <style>
      .st0 {
        fill: #fff;
      }
    </style>
  </defs>
  <g id="Layer_11" data-name="Layer_1">
    <g>
      <path class="st0" d="M208.2,207.5c-3.9,0-7,3.1-7,7s3.1,7,7,7,7-3.1,7-7h0c0-3.9-3.1-7-7-7ZM208.2,219c-2.5,0-4.6-2.1-4.6-4.6s2.1-4.6,4.6-4.6h0c2.5,0,4.5,2.1,4.5,4.6s-2.1,4.6-4.6,4.6h.1Z"/>
      <path class="st0" d="M211.5,203.8h0c6.7,0,12.1-5.4,12.1-12.1s-5.4-12.1-12.1-12.1-12.1,5.4-12.1,12.1h0c0,6.7,5.4,12.1,12.1,12.1ZM201.8,191.7c0-5.4,4.4-9.7,9.8-9.7s9.7,4.4,9.7,9.8-4.4,9.7-9.8,9.7-9.7-4.4-9.7-9.7h0Z"/>
      <path class="st0" d="M195.3,217.7c-2,0-3.6,1.6-3.6,3.6s1.6,3.6,3.6,3.6h0c2,0,3.6-1.6,3.6-3.6s-1.6-3.6-3.6-3.6ZM195.2,222.6c-.7,0-1.2-.6-1.2-1.2s.6-1.2,1.2-1.2h0c.7,0,1.2.6,1.2,1.2s-.6,1.2-1.2,1.2Z"/>
      <path class="st0" d="M191.2,198.9c-4.7,0-8.6,3.8-8.6,8.6s3.8,8.6,8.6,8.6h0c4.7,0,8.5-3.8,8.6-8.6h0c0-4.7-3.8-8.6-8.6-8.6ZM191.2,213.7c-3.4,0-6.2-2.8-6.2-6.2s2.8-6.2,6.2-6.2,6.2,2.8,6.2,6.2-2.8,6.2-6.2,6.2Z"/>
      <path class="st0" d="M191.2,191.2c3.9,0,7-3.1,7-7s-3.1-7-7-7h0c-3.9,0-7,3.1-7,7s3.1,7,7,7ZM191.1,179.6c2.5,0,4.6,2.1,4.6,4.6s-2.1,4.6-4.6,4.6h0c-2.5,0-4.6-2.1-4.6-4.6s2.1-4.6,4.6-4.6Z"/>
      <path class="st0" d="M184,195.5h0c0-2.2-1.9-4-4.1-4s-4,1.9-4,4.1,1.8,4,4,4,4-1.8,4.1-4h0ZM179.9,197.1c-.9,0-1.7-.7-1.7-1.7s.7-1.7,1.7-1.7,1.7.7,1.7,1.7-.7,1.7-1.7,1.7Z"/>
      <path class="st0" d="M203.4,179.6c2,0,3.6-1.6,3.6-3.6s-1.6-3.6-3.6-3.6h0c-2,0-3.6,1.6-3.6,3.6s1.6,3.6,3.6,3.6ZM202.1,175.9c0-.7.6-1.2,1.3-1.2s1.2.6,1.2,1.3-.6,1.2-1.3,1.2h0c-.7,0-1.2-.6-1.2-1.3h0Z"/>
      <path class="st0" d="M200,55.8c-79.6,0-144.2,64.6-144.2,144.2s64.6,144.2,144.2,144.2,144.2-64.6,144.2-144.2S279.6,55.8,200,55.8ZM296,205.2c-2.5,49-41.9,88.3-90.9,90.9v30.1h-10v-30.1c-49-2.5-88.3-41.9-90.9-90.9h-30.1v-10h30.1c2.5-49,41.9-88.3,90.9-90.9v-30.1h10v30.1c49,2.5,88.3,41.9,90.9,90.9h30.1v10h-30.1Z"/>
      <path class="st0" d="M258.7,195.2h25.3c-2.5-42.3-36.5-76.3-78.8-78.8v25.3h-10v-25.3c-42.3,2.5-76.3,36.5-78.8,78.8h25.3v10h-25.3c2.5,42.3,36.5,76.3,78.8,78.8v-25.3h10v25.3c42.3-2.5,76.3-36.5,78.8-78.8h-25.3v-10h0ZM246.7,204.9c-.2,1.7-.9,3.3-1.9,4.6-.7,1.3-2.4,1.8-3.7,1.1-.7-.4-1.2-1.1-1.4-1.9-.7-1.7-2.3-2.8-4.2-2.8h-6.9c-.9.1-1.7.7-2,1.5-.3.7-.5,1.5-.9,2.2-.4.9-.2,1.9.6,2.5l3.6,3c1,.8,2.4,1,3.5.5.5-.3,1-.3,1.5-.1.4.3.6.9.6,1.4,0,2-1.2,3.9-3,4.9-.5.3-1,.3-1.5.1-.5-.4-.7-1-.6-1.6,0-1.3-.8-2.6-2-3.1l-4.2-1.8c-.9-.4-1.9-.1-2.5.6l-.5.6c-.6.7-.7,1.7-.3,2.5l3.4,6.2c.9,1.5,2.6,2.4,4.3,2.3,1.1-.2,2.1.2,2.9,1,1.2,1.6-.1,4.9-3,7-2.9,2.2-6.3,2.6-7.6,1-.6-1-.6-2.3,0-3.3.7-1.7.3-3.7-1-5l-4.9-4.7c-.6-.6-1.6-.8-2.4-.4-.8.4-1.7.8-2.5,1.1-.9.3-1.4,1.1-1.4,2.1l.3,4.6c0,1.3.9,2.4,2.1,2.9.5.1,1,.5,1.2,1,.2.9-1.2,2.3-3.2,2.7-2.1.4-3.9-.2-4.1-1.2,0-.6.2-1.2.7-1.5,1-.9,1.3-2.3.8-3.6l-1.7-4.2c-.3-.9-1.2-1.4-2.1-1.3h-.4c-.9,0-1.7.7-1.9,1.5l-2,6.7c-.5,1.7,0,3.5,1.4,4.7,1.3.7,1.8,2.4,1.1,3.7-.4.7-1,1.2-1.8,1.3-3.2,1.3-6.9.8-9.7-1.3-.9-.6-1.4-1.7-1.4-2.7.3-1.1,1.2-2,2.3-2.3,1.7-.7,2.8-2.4,2.8-4.2v-6.8c-.1-.9-.7-1.7-1.5-2-1-.3-2-.7-2.9-1.2-.3-.1-.6-.2-.9-.2-.6,0-1.2.3-1.6.7l-3.1,3.5c-.8.9-1.1,2.3-.6,3.5.3.5.3,1,0,1.5-.5.8-2.4.8-4.2-.4-.9-.6-1.6-1.3-2-2.3-.3-.5-.3-1,0-1.5.4-.4,1-.6,1.6-.5,1.3,0,2.6-.7,3.2-1.9l1.9-4.1c.5-1.1,0-2.4-1-2.8-.6-.3-1.4-.3-2,0l-6.2,3.4c-1.5.9-2.4,2.6-2.3,4.3.2,1.1-.2,2.1-1,2.9-1.6,1.2-4.9-.1-7-3s-2.6-6.3-1-7.6c1-.6,2.3-.6,3.3,0,1.7.7,3.7.3,5-1l4.7-4.9c.6-.6.8-1.6.4-2.4-.2-.4-.4-.9-.6-1.3-.4-.9-1.3-1.4-2.2-1.3l-4.6.5c-1.3.1-2.4,1.1-2.8,2.3-.1.5-.5,1-1,1.2-.9.3-2.3-1-2.9-3.1-.3-1-.3-2,0-3,.1-.5.5-.9,1-1.2.6,0,1.2.2,1.5.7,1,.9,2.4,1.2,3.6.6l4.2-1.8c.9-.4,1.4-1.3,1.2-2.2,0-.6-.1-1.2-.2-1.7,0-.9-.7-1.7-1.5-1.9l-6.7-2.1c-1.7-.5-3.5,0-4.7,1.4-.6.9-1.6,1.4-2.7,1.4-1.1-.3-1.9-1-2.3-2.1-1.3-3.2-.8-6.9,1.3-9.7.6-.9,1.7-1.4,2.7-1.4,1.1.3,2,1.2,2.3,2.3.7,1.7,2.4,2.8,4.2,2.8h6.8c.9-.1,1.7-.7,2-1.5.2-.6.4-1.2.7-1.7.4-.9.1-1.9-.6-2.5l-3.6-2.9c-1-.8-2.4-1-3.5-.4-.5.3-1,.4-1.5.2-.8-.5-.9-2.4.2-4.2.5-.9,1.3-1.6,2.2-2.1.4-.3,1-.3,1.5-.1.5.4.7,1,.6,1.6,0,1.3.8,2.5,2.1,3l4.2,1.7c.9.4,1.9,0,2.5-.7l.9-1c.6-.7.7-1.6.3-2.4l-3.4-6.2c-.9-1.5-2.6-2.4-4.3-2.3-1.1.2-2.1-.2-2.9-1-1.2-1.6.1-4.9,3-7,2.9-2.2,6.3-2.6,7.6-1,.6,1,.6,2.3,0,3.3-.7,1.7-.3,3.7,1,5l4.9,4.7c.6.6,1.6.8,2.4.4.6-.3,1.2-.5,1.7-.7.9-.3,1.4-1.2,1.4-2.1l-.5-4.6c-.1-1.3-1-2.4-2.2-2.8-.5-.1-.9-.5-1.2-1,0-.5.2-1.1.6-1.4.7-.7,1.6-1.2,2.6-1.4,2.1-.5,3.9,0,4.1,1,0,.6-.2,1.2-.7,1.5-.9.9-1.2,2.3-.7,3.5l1.8,4.2c.4.9,1.3,1.4,2.2,1.3h1.3c.9-.2,1.7-.8,1.9-1.6l2-6.7c.5-1.7,0-3.5-1.4-4.7-.9-.6-1.4-1.6-1.4-2.7.3-1.1,1-1.9,2.1-2.3,3.2-1.3,6.9-.8,9.7,1.3.9.6,1.4,1.7,1.4,2.7-.3,1.1-1.2,2-2.3,2.3-1.7.7-2.8,2.4-2.8,4.2v6.8c.1.9.7,1.7,1.5,2,.5.2.9.3,1.4.5.9.4,1.9.1,2.5-.6l2.9-3.6c.7-1,.8-2.3.3-3.4-.3-.5-.4-1-.2-1.5.5-.8,2.4-.9,4.2.2.9.5,1.6,1.2,2.1,2.1.3.4.4,1,.2,1.5-.4.5-1,.7-1.5.6-1.3,0-2.5.8-3,2.1l-1.7,4.2c-.3.9,0,1.9.7,2.5.4.3.9.7,1.3,1.1.7.6,1.6.7,2.4.3l6.2-3.4c1.5-.9,2.4-2.6,2.3-4.3-.2-1.1.2-2.1,1-2.9,1.6-1.2,4.9.1,7,3,2.2,2.9,2.6,6.3,1,7.6-1,.6-2.3.6-3.3,0-1.7-.7-3.7-.3-5,1l-4.7,4.9c-.6.6-.8,1.6-.4,2.4.3.6.5,1.2.8,1.7.4.9,1.2,1.4,2.2,1.3l4.6-.5c1.3,0,2.4-.9,2.8-2.1.1-.5.5-.9,1-1.2.9-.2,2.3,1.1,2.8,3.1s0,3.9-1,4.1c-.6,0-1.2-.2-1.5-.7-.9-1-2.4-1.2-3.6-.7l-4.2,1.8c-.9.4-1.4,1.3-1.3,2.2,0,.4,0,.8.1,1.2,0,.9.7,1.7,1.5,1.9l6.7,2c1.7.5,3.5,0,4.7-1.4.6-.9,1.6-1.4,2.7-1.4,1.1.3,1.9,1,2.3,2.1.6,1.6.8,3.3.5,5v-.3Z"/>
      <path class="st0" d="M220.9,203.8c-2,0-3.6,1.5-3.7,3.5,0,2,1.5,3.6,3.5,3.7h0c2,0,3.6-1.6,3.6-3.6h0c0-2-1.5-3.6-3.5-3.7h0ZM220.7,208.7h0c-.7,0-1.2-.6-1.2-1.2s.6-1.2,1.2-1.2,1.2.6,1.2,1.2-.6,1.2-1.2,1.2Z"/>
    </g>
  </g>
</svg>